<svg width="213" height="204" viewBox="0 0 213 204" fill="none" xmlns="http://www.w3.org/2000/svg">
<path d="M68.0223 48.9981L84.6904 55.8149C85.06 55.9661 85.4614 56.0328 85.8627 56.0096C86.264 55.9864 86.6542 55.8741 87.0024 55.6815C87.2429 55.5478 87.4598 55.3785 87.6452 55.1799C88.0061 54.7903 88.2298 54.3018 88.2847 53.7836C88.3396 53.2655 88.2229 52.744 87.951 52.2931L76.3025 32.9632L71.8167 35.4445L79.5824 48.3311L62.9143 41.5143C62.4145 41.3099 61.8602 41.2613 61.3299 41.3754C60.7996 41.4896 60.3201 41.7606 59.9594 42.1502C59.5987 42.5398 59.3751 43.0281 59.3202 43.5461C59.2654 44.064 59.382 44.5853 59.6537 45.0361L71.3022 64.366L75.788 61.8847L68.0223 48.9981Z" fill="#C7C7C7"/>
<path d="M132.388 150.849L136.873 148.368C137.468 148.039 138.175 147.95 138.838 148.12C139.502 148.29 140.067 148.706 140.41 149.275L144.896 146.794C143.866 145.085 142.17 143.838 140.18 143.328C138.19 142.818 136.069 143.085 134.285 144.073L129.799 146.554C128.014 147.541 126.712 149.166 126.178 151.073C125.645 152.979 125.923 155.01 126.953 156.719C127.983 158.428 129.679 159.675 131.67 160.185C133.66 160.695 135.78 160.428 137.565 159.44L142.05 156.959C142.645 156.63 143.352 156.541 144.015 156.711C144.679 156.881 145.244 157.297 145.588 157.866C145.931 158.436 146.024 159.113 145.846 159.748C145.668 160.384 145.234 160.926 144.639 161.255L140.153 163.736C139.558 164.065 138.852 164.154 138.188 163.984C137.525 163.814 136.959 163.398 136.616 162.829L132.13 165.31C133.16 167.019 134.857 168.266 136.847 168.776C138.837 169.286 140.957 169.019 142.742 168.032L147.228 165.55C149.012 164.563 150.314 162.938 150.848 161.031C151.382 159.125 151.103 157.094 150.073 155.385C149.044 153.676 147.347 152.429 145.357 151.919C143.367 151.409 141.246 151.677 139.462 152.664L134.976 155.145C134.381 155.474 133.674 155.563 133.011 155.393C132.348 155.223 131.782 154.807 131.439 154.238C131.096 153.668 131.003 152.991 131.181 152.356C131.359 151.72 131.793 151.178 132.388 150.849Z" fill="#C7C7C7"/>
<path d="M169.566 58.6959L166.978 54.4004L153.52 61.8442C152.925 62.1732 152.491 62.7151 152.313 63.3505C152.135 63.986 152.228 64.663 152.572 65.2326L162.926 82.4147C163.269 82.9843 163.835 83.3999 164.498 83.5701C165.161 83.7402 165.868 83.6509 166.463 83.3219L179.92 75.8781L177.332 71.5825L166.117 77.7857L163.529 73.4902L170.257 69.7683L167.669 65.4727L160.94 69.1946L158.352 64.8991L169.566 58.6959Z" fill="#C7C7C7"/>
<path d="M57.9514 141.268C58.3556 141.642 58.8762 141.88 59.4343 141.946C59.9925 142.012 60.5579 141.902 61.0452 141.632L61.0833 141.611C61.5719 141.33 61.9502 140.903 62.1595 140.395C62.3688 139.887 62.3974 139.328 62.241 138.803L56.3725 119.14L51.3923 120.503L54.605 131.263L48.0046 125.149C47.6002 124.775 47.0798 124.538 46.5221 124.473C45.9644 124.408 45.3995 124.518 44.9129 124.787C44.4262 125.056 44.0441 125.47 43.8242 125.965C43.6043 126.461 43.5585 127.011 43.6938 127.533L45.9205 136.067L37.8004 128.021L34.0782 131.472L48.9183 146.173C49.3146 146.564 49.8348 146.82 50.3982 146.899C50.9616 146.979 51.5368 146.879 52.0347 146.614C52.5327 146.349 52.9256 145.934 53.1527 145.433C53.3797 144.933 53.4282 144.375 53.2907 143.846L50.9163 134.749L57.9514 141.268Z" fill="#C7C7C7"/>
<path d="M118.625 128.012L108.908 111.887C107.984 112.131 107.03 112.25 106.072 112.238L104.763 116.92L118.625 128.012Z" fill="#C7C7C7"/>
<path d="M108.753 106.654C111.23 105.284 112.08 102.25 110.65 99.8776C109.22 97.5052 106.053 96.6929 103.576 98.0633C101.098 99.4337 100.249 102.468 101.678 104.84C103.108 107.212 106.275 108.025 108.753 106.654Z" fill="#C7C7C7"/>
<path d="M98.9246 95.3126L89.2071 79.1872L92.3031 96.2347L97.1914 97.4883C97.6591 96.6884 98.2426 95.9559 98.9246 95.3126Z" fill="#C7C7C7"/>
<path d="M126.074 106.025L125.045 107.202L125.321 108.712L129.972 108.465L126.074 106.025Z" fill="#C7C7C7"/>
<path d="M116.104 99.7185C116.359 100.603 116.482 101.517 116.469 102.434L121.356 103.686L132.943 90.4038L116.104 99.7185Z" fill="#C7C7C7"/>
<path d="M111.248 93.761C112.084 94.2091 112.849 94.7685 113.52 95.4223L130.36 86.1076L112.561 89.0804L111.248 93.761Z" fill="#C7C7C7"/>
<path d="M112.57 79.4778L109.983 83.2685L111.229 84.2656L112.83 83.9988L112.57 79.4778Z" fill="#C7C7C7"/>
<path d="M87.2793 97.5164L87.0014 95.9834L82.2812 96.2346L86.2378 98.711L87.2793 97.5164Z" fill="#C7C7C7"/>
<path d="M101.077 110.954C100.241 110.506 99.476 109.946 98.8044 109.293L81.9648 118.607L99.7643 115.634L101.077 110.954Z" fill="#C7C7C7"/>
<path d="M90.9646 101.032L79.3778 114.314L96.2174 104.999C95.9621 104.115 95.839 103.201 95.8517 102.283L90.9646 101.032Z" fill="#C7C7C7"/>
<path d="M101.094 120.446L99.5165 120.712L99.7726 125.166L102.322 121.431L101.094 120.446Z" fill="#C7C7C7"/>
<path d="M115.135 107.226C114.667 108.027 114.083 108.76 113.4 109.403L123.117 125.529L120.021 108.481L115.135 107.226Z" fill="#C7C7C7"/>
<path d="M93.6934 76.7065L103.411 92.832C104.334 92.5871 105.289 92.4688 106.246 92.4806L107.555 87.799L93.6934 76.7065Z" fill="#C7C7C7"/>
<path d="M60.8572 146.695L57.2315 150.241C66.1534 158.615 77.258 164.544 89.388 167.408C101.518 170.272 114.229 169.968 126.197 166.526L124.711 161.776C113.629 164.962 101.86 165.243 90.6293 162.591C79.3986 159.938 69.1174 154.449 60.8572 146.695Z" fill="#C7C7C7"/>
<path d="M150.596 147.455L154.146 151.064C163.241 142.855 169.872 132.46 173.348 120.964C176.824 109.467 177.018 97.2895 173.909 85.6996L168.89 86.9348C171.77 97.6654 171.592 108.941 168.374 119.585C165.156 130.23 159.017 139.854 150.596 147.455Z" fill="#C7C7C7"/>
<path d="M151.468 58.025L155.093 54.4788C146.172 46.1045 135.067 40.1762 122.937 37.312C110.807 34.4477 98.0956 34.7522 86.1274 38.1938L87.6144 42.9441C98.6956 39.758 110.465 39.4765 121.696 42.129C132.926 44.7815 143.208 50.2709 151.468 58.025Z" fill="#C7C7C7"/>
<path d="M61.7245 57.2586L58.1741 53.6498C48.784 62.2009 42.0396 73.068 38.6842 85.0535C35.3287 97.0391 35.4925 109.678 39.1574 121.577L44.1174 120.151C40.7248 109.133 40.5735 97.4318 43.6802 86.3348C46.7868 75.2378 53.0309 65.1762 61.7245 57.2586Z" fill="#C7C7C7"/>
</svg>
