<svg width="232" height="105" viewBox="0 0 232 105" fill="none" xmlns="http://www.w3.org/2000/svg">
<path d="M1.98871 92.689V8.30257H18.9088L26.4288 1.63489L33.9488 8.30257L41.4688 1.63489L48.9889 8.30257L56.5089 1.63489L64.0289 8.30257L71.5489 1.63489L79.069 8.30257L86.589 1.63489L94.109 8.30257L101.629 1.63489L109.149 8.30257L116.669 1.63489L124.189 8.30257L131.709 1.63489L139.229 8.30257L146.749 1.63489L154.269 8.30257L161.789 1.63489L169.309 8.30257L176.829 1.63489L184.349 8.30257L191.869 1.63489L199.389 8.30257L206.909 1.63489L214.429 8.30257H230.096V103.873H150.201V99.8059H109.674V103.873H29.7784V92.689H1.98871Z" stroke="#415EB7" stroke-width="2"/>
</svg>
