<svg width="36" height="22" viewBox="0 0 36 22" fill="none" xmlns="http://www.w3.org/2000/svg">
<path d="M10.5139 0.977295V2.34962L8.09972 2.75868C7.84667 2.80267 7.64929 2.89504 7.50758 3.03579C7.37599 3.17654 7.3102 3.36128 7.3102 3.59V19.0287C7.3102 19.2574 7.37599 19.4422 7.50758 19.5829C7.63917 19.7237 7.83655 19.816 8.09972 19.86L10.5139 20.2427V21.5886H0.705505V20.2427L3.13482 19.86C3.39799 19.816 3.59537 19.7237 3.72696 19.5829C3.85855 19.4422 3.92434 19.2574 3.92434 19.0287V3.59C3.92434 3.37007 3.85349 3.18974 3.71178 3.04898C3.58019 2.89943 3.38787 2.80267 3.13482 2.75868L0.705505 2.34962V0.977295H10.5139Z" fill="#415EB7"/>
<path d="M25.6628 21.6546H22.5806L14.6854 3.45804C14.6044 3.26451 14.488 3.11496 14.3362 3.0094C14.1945 2.90383 14.0123 2.82026 13.7896 2.75868L12.0435 2.34962V0.977295H21.1838V2.34962L18.056 2.87744L24.6911 18.6856L30.6126 2.87744L27.5 2.34962V0.977295H35.5015V2.34962L33.6644 2.75868C33.4417 2.82026 33.2494 2.90383 33.0874 3.0094C32.9356 3.11496 32.8242 3.26451 32.7534 3.45804L25.6628 21.6546Z" fill="#415EB7"/>
</svg>
